# xmcd
#
# Track frame offsets: 
#        150
#        12645
#        26274
#        39094
#        50690
#        60778
#        70913
#        82045
#        92200
#        103858
#        114952
#        127454
#        138147
#        148082
#        158512
#        169976
#        182158
#        193588
#        204503
#        217660
#
# Disc length: 3074 seconds
#
# Revision: 0
# Processed by: cddbd v1.5.2PL0 Copyright (c) Steve Scherf et al.
# Submitted via: ExactAudioCopyFreeDBPlugin 1.0
#
DISCID=160c0014
DTITLE=James Brown - The Roots Of Rebellion [CD1)
DYEAR=2015
DGENRE=R&B
TTITLE0=Please, Please, Please
TTITLE1=Why Do You Do Me
TTITLE2=I Don't Know
TTITLE3=I Feel That Old Feeling Coming On
TTITLE4=No, No, No, No
TTITLE5=Hold My Baby's Hand
TTITLE6=I Won't Plead No More
TTITLE7=Chonnie-On-Chon
TTITLE8=Just Won't Do Right
TTITLE9=Let's Make It
TTITLE10=Gonna Try
TTITLE11=Can't Be The Same
TTITLE12=Messing With The Blues
TTITLE13=Love Or A Game
TTITLE14=You're Mine, You're Mine
TTITLE15=I Walked Alone
TTITLE16=That Dood It
TTITLE17=Baby Cries Over The Ocean
TTITLE18=Begging, Begging
TTITLE19=That's When I Lost My Heart
EXTD=
EXTT0=
EXTT1=
EXTT2=
EXTT3=
EXTT4=
EXTT5=
EXTT6=
EXTT7=
EXTT8=
EXTT9=
EXTT10=
EXTT11=
EXTT12=
EXTT13=
EXTT14=
EXTT15=
EXTT16=
EXTT17=
EXTT18=
EXTT19=
PLAYORDER=
